<?xml version="1.0" encoding="utf-8"?>
<!-- Generator: Adobe Illustrator 18.1.1, SVG Export Plug-In . SVG Version: 6.00 Build 0)  -->
<svg version="1.1" id="Layer_1" xmlns="http://www.w3.org/2000/svg" xmlns:xlink="http://www.w3.org/1999/xlink" x="0px" y="0px"
	 viewBox="0 0 246.9 117.9" enable-background="new 0 0 246.9 117.9" xml:space="preserve">
<g>
	<path fill="#414042" d="M46.9,51.5h9.4c1.1,0,2.1,0.1,3,0.2c0.9,0.2,1.7,0.4,2.3,0.9c0.7,0.4,1.2,1,1.5,1.7
		c0.4,0.7,0.5,1.7,0.5,2.8c0,1.8-0.6,3.3-1.7,4.5c-1.1,1.2-2.6,1.9-4.5,2.1v0.1c3.2,0.5,4.8,2.4,4.8,5.6c0,0.9-0.2,1.8-0.5,2.7
		c-0.3,0.9-0.9,1.7-1.6,2.5c-0.7,0.7-1.7,1.4-2.9,1.8c-1.2,0.5-2.6,0.7-4.4,0.7H41.4L46.9,51.5z M43.3,75.8h9.6
		c1.2,0,2.3-0.2,3.3-0.5c1-0.3,1.8-0.8,2.4-1.3c0.7-0.6,1.2-1.3,1.5-2.1c0.3-0.8,0.5-1.7,0.5-2.6c0-1.8-0.5-3-1.5-3.7
		c-1-0.7-2.6-1.1-4.9-1.1h-8.6L43.3,75.8z M46,63.1h8.6c2.3,0,4.1-0.5,5.5-1.5c1.3-1,2-2.5,2-4.3c0-1-0.1-1.8-0.4-2.4
		c-0.3-0.6-0.7-1-1.2-1.3c-0.5-0.3-1.2-0.5-1.9-0.6s-1.5-0.1-2.4-0.1h-7.9L46,63.1z"/>
	<path fill="#414042" d="M67.6,58.7H69l-1,4.4h0.1c0.7-1.4,1.6-2.5,2.8-3.5s2.6-1.4,4.2-1.4c0.2,0,0.4,0,0.6,0c0.2,0,0.4,0,0.6,0.1
		l-0.4,1.4c-0.4-0.1-0.7-0.1-1.1-0.1c-1.3,0-2.5,0.3-3.4,1c-0.9,0.7-1.7,1.6-2.3,2.6c-0.6,1-1.1,2.1-1.5,3.3
		c-0.4,1.2-0.6,2.2-0.9,3.2L65,77.2h-1.4L67.6,58.7z"/>
	<path fill="#414042" d="M76.1,68.1c0,0.3-0.1,0.7-0.1,1c0,0.3-0.1,0.7-0.1,1c0,0.8,0.1,1.6,0.4,2.4c0.3,0.8,0.6,1.4,1.1,2
		c0.5,0.6,1.1,1,1.8,1.4s1.6,0.5,2.5,0.5c0.9,0,1.7-0.1,2.5-0.4c0.8-0.3,1.5-0.7,2.1-1.2c0.6-0.5,1.1-1.1,1.5-1.7s0.7-1.3,0.9-2.1
		h1.4c-0.3,1-0.6,1.8-1.2,2.6c-0.5,0.8-1.1,1.5-1.8,2.1c-0.7,0.6-1.5,1-2.5,1.4c-0.9,0.3-1.9,0.5-3,0.5c-1.2,0-2.2-0.2-3.1-0.6
		c-0.9-0.4-1.6-0.9-2.2-1.6c-0.6-0.7-1-1.5-1.3-2.3c-0.3-0.9-0.5-1.8-0.5-2.8c0-1.7,0.2-3.3,0.7-4.8c0.5-1.5,1.1-2.7,1.9-3.8
		c0.8-1.1,1.9-1.9,3.1-2.5c1.2-0.6,2.6-0.9,4.1-0.9c1.1,0,2,0.2,2.9,0.5c0.8,0.4,1.5,0.9,2.1,1.5s1,1.4,1.3,2.3
		c0.3,0.9,0.5,1.8,0.5,2.8c0,0.5,0,0.9-0.1,1.4c0,0.4-0.1,0.9-0.2,1.4H76.1z M89.6,66.9c0-0.3,0.1-0.6,0.1-0.8
		c0-0.2,0.1-0.5,0.1-0.7c0-0.8-0.1-1.5-0.3-2.3c-0.2-0.7-0.6-1.3-1-1.9c-0.5-0.5-1-1-1.8-1.3c-0.7-0.3-1.6-0.5-2.5-0.5
		c-1.1,0-2.1,0.2-2.9,0.6c-0.9,0.4-1.6,1-2.3,1.7s-1.2,1.5-1.6,2.4c-0.4,0.9-0.8,1.8-1,2.8H89.6z"/>
	<path fill="#414042" d="M94.8,64c0.5-2.1,1.4-3.5,2.8-4.4c1.4-0.9,3.1-1.3,5.2-1.3c0.5,0,1,0.1,1.7,0.2s1.3,0.3,1.9,0.6
		c0.6,0.3,1.1,0.8,1.5,1.3c0.4,0.6,0.6,1.3,0.6,2.2c0,0.4-0.1,0.9-0.2,1.6c-0.1,0.7-0.3,1.3-0.4,2s-0.3,1.2-0.4,1.8
		c-0.1,0.5-0.2,0.9-0.2,1c-0.1,0.5-0.3,1-0.4,1.6s-0.3,1.1-0.4,1.7c-0.1,0.6-0.2,1.1-0.3,1.5s-0.1,0.8-0.1,1.1
		c0,0.3,0.1,0.6,0.3,0.8s0.4,0.3,0.8,0.3c0.2,0,0.4,0,0.6-0.1c0.2,0,0.4-0.1,0.6-0.1l-0.2,1.2c-0.3,0.1-0.5,0.1-0.8,0.1
		c-0.3,0-0.5,0-0.8,0c-0.6,0-1.1-0.2-1.4-0.6c-0.3-0.4-0.4-0.9-0.4-1.3c0-0.2,0-0.4,0.1-0.7c0.1-0.3,0.1-0.6,0.2-0.8h-0.1
		c-0.4,0.7-0.8,1.2-1.4,1.7s-1.1,0.9-1.8,1.2c-0.6,0.3-1.3,0.5-1.9,0.7c-0.7,0.1-1.3,0.2-1.9,0.2c-0.8,0-1.5-0.1-2.2-0.3
		c-0.7-0.2-1.3-0.5-1.8-0.9c-0.5-0.4-0.9-0.9-1.2-1.5s-0.5-1.4-0.5-2.3c0-1.2,0.2-2.1,0.7-2.9c0.5-0.7,1.1-1.3,1.8-1.7
		c0.8-0.4,1.6-0.7,2.6-0.8c1-0.2,2-0.2,3-0.3c1.3,0,2.4-0.1,3.2-0.3c0.9-0.1,1.6-0.3,2.1-0.6c0.5-0.3,0.9-0.6,1.1-1.1
		c0.2-0.5,0.3-1,0.3-1.7c0-1.2-0.4-2.1-1.1-2.8c-0.7-0.7-1.9-1-3.6-1c-1.7,0-3,0.4-4.1,1.1c-1.1,0.7-1.8,1.9-2.2,3.5H94.8z
		 M106.4,66.7L106.4,66.7c-0.3,0.3-0.7,0.5-1.2,0.6c-0.5,0.2-1,0.3-1.5,0.4c-0.6,0.1-1.1,0.2-1.7,0.2c-0.6,0-1,0.1-1.4,0.1
		c-0.9,0-1.7,0.1-2.6,0.2c-0.8,0.1-1.6,0.3-2.2,0.6c-0.7,0.3-1.2,0.8-1.6,1.3c-0.4,0.6-0.6,1.4-0.6,2.4c0,0.7,0.1,1.3,0.4,1.8
		c0.3,0.5,0.6,0.9,1,1.2c0.4,0.3,0.9,0.5,1.5,0.6c0.6,0.1,1.2,0.2,1.8,0.2c1.1,0,2.1-0.2,2.9-0.6c0.8-0.4,1.5-0.9,2.1-1.6
		c0.6-0.7,1.1-1.4,1.5-2.3c0.4-0.9,0.7-1.8,1-2.7L106.4,66.7z"/>
	<path fill="#414042" d="M115.9,51.5h1.4l-3.7,17l0.1,0.1l12.4-9.9h2.1l-9.4,7.4l6.6,11.1h-1.7l-6-10.3l-4.4,3.4l-1.4,6.8h-1.4
		L115.9,51.5z"/>
	<path fill="#414042" d="M174.8,77.2h-1.4v-4h-0.1c-0.2,0.7-0.6,1.3-1,1.9c-0.4,0.5-1,1-1.5,1.4c-0.6,0.4-1.2,0.7-1.9,0.9
		c-0.7,0.2-1.4,0.3-2.1,0.3c-1.1,0-2-0.1-2.8-0.4c-0.8-0.3-1.4-0.6-1.9-1c-0.5-0.4-0.9-0.9-1.1-1.5c-0.3-0.5-0.5-1.1-0.6-1.6
		c-0.1-0.6-0.2-1.1-0.2-1.6s0-1,0-1.4V58.7h1.4v11.7c0,0.5,0,1.1,0.1,1.7c0.1,0.7,0.3,1.3,0.6,2c0.3,0.6,0.9,1.2,1.6,1.6
		c0.7,0.5,1.7,0.7,3,0.7c1,0,2-0.2,2.8-0.6c0.8-0.4,1.5-0.9,2.1-1.6c0.6-0.7,1-1.5,1.3-2.4c0.3-0.9,0.4-2,0.4-3.1v-10h1.4V77.2z"/>
	<path fill="#414042" d="M185.6,59.9h-4v12.9c0,0.7,0.1,1.3,0.3,1.8c0.2,0.4,0.4,0.8,0.8,1c0.3,0.2,0.8,0.4,1.3,0.4
		c0.5,0,1.1,0.1,1.7,0v1.2c-0.7,0-1.4,0-2,0c-0.7-0.1-1.2-0.2-1.7-0.5s-0.9-0.7-1.2-1.4c-0.3-0.6-0.4-1.4-0.4-2.5V59.9h-3.4v-1.2
		h3.4v-5.8h1.4v5.8h4V59.9z"/>
</g>
<polygon fill="#414042" points="39.6,44.6 33.5,39.7 38.4,33.6 39.8,34.6 35.9,39.4 40.6,43.3 "/>
<polygon fill="#414042" points="209.6,86.2 208.2,85.3 211.4,80.1 206.2,76.9 207.1,75.4 213.8,79.6 "/>
<rect x="188.2" y="61.5" transform="matrix(0.2425 0.9701 -0.9701 0.2425 226.3673 -118.5218)" fill="#414042" width="1.7" height="48.5"/>
<rect x="110.4" y="44.7" transform="matrix(0.7249 0.6889 -0.6889 0.7249 65.4406 -72.6781)" fill="#414042" width="26.6" height="1.7"/>
<rect x="71.1" y="-0.3" transform="matrix(6.430854e-02 0.9979 -0.9979 6.430854e-02 104.3146 -37.1236)" fill="#414042" width="1.7" height="74.7"/>
<rect x="125.6" y="70.8" transform="matrix(0.7827 0.6225 -0.6225 0.7827 79.9581 -60.3786)" fill="#414042" width="1.7" height="27"/>
<rect x="146.8" y="81.6" transform="matrix(0.572 0.8203 -0.8203 0.572 134.3544 -92.6738)" fill="#414042" width="18.4" height="1.7"/>
<path fill="#414042" d="M112,38.1c-2,0-3.6-1.6-3.6-3.6s1.6-3.6,3.6-3.6s3.6,1.6,3.6,3.6S114,38.1,112,38.1z M112,32.5
	c-1.1,0-1.9,0.9-1.9,1.9s0.9,1.9,1.9,1.9c1.1,0,1.9-0.9,1.9-1.9S113.1,32.5,112,32.5z"/>
<path fill="#414042" d="M116.3,100.7c-2,0-3.6-1.6-3.6-3.6s1.6-3.6,3.6-3.6S120,95,120,97S118.3,100.7,116.3,100.7z M116.3,95.1
	c-1.1,0-1.9,0.9-1.9,1.9s0.9,1.9,1.9,1.9c1.1,0,1.9-0.9,1.9-1.9S117.4,95.1,116.3,95.1z"/>
<path fill="#414042" d="M162.8,95.9c-2,0-3.6-1.6-3.6-3.6s1.6-3.6,3.6-3.6s3.6,1.6,3.6,3.6S164.9,95.9,162.8,95.9z M162.8,90.3
	c-1.1,0-1.9,0.9-1.9,1.9s0.9,1.9,1.9,1.9c1.1,0,1.9-0.9,1.9-1.9S163.9,90.3,162.8,90.3z"/>
<g>
	<path fill="#F7941E" d="M157.6,63.6c0,7.6-6.4,13.9-14.1,13.9s-14.1-6.3-14.1-13.9s6.4-13.9,14.1-13.9
		C151.2,49.7,157.6,56,157.6,63.6z M131.2,63.6c0,6.7,5.6,12.3,12.3,12.3c6.7,0,12.3-5.7,12.3-12.3c0-6.7-5.6-12.3-12.3-12.3
		C136.8,51.3,131.2,56.9,131.2,63.6z"/>
</g>
</svg>
